<?xml version="1.0" encoding="utf-8"?>
<!-- Generator: Adobe Illustrator 23.1.0, SVG Export Plug-In . SVG Version: 6.00 Build 0)  -->
<svg version="1.1" id="Arrow" xmlns="http://www.w3.org/2000/svg" fill="#181818" xmlns:xlink="http://www.w3.org/1999/xlink" x="0px" y="0px"
	 viewBox="0 0 475.2 470.1" style="enable-background:new 0 0 475.2 470.1;" xml:space="preserve">
<path d="M286.6,178.8l3.1,3.1l-3.2-3C286.5,178.8,286.6,178.8,286.6,178.8z"/>
<polygon points="293.6,185.9 293.5,186 293,185.5 290.1,182.3 293.1,185.4 "/>
<path d="M290.1,182.3l-0.4-0.4l-3.2-3c0,0,0.1-0.1,0.1-0.1l0.1-0.1l3.2,3.4L290.1,182.3z"/>
<path d="M293,186.5c-3.9,4.1-26.4,31.4,0,83.1l-8.9,4.6c-15.2-29.6-15.2-52.3-12-67l-84.6,83.8l-7-7.1l85-84.2
	c-4.8,1.1-10.5,1.9-17,1.9c-13.5,0-30.5-3.3-50.8-13.7l4.6-8.9c55.5,28.5,83.3-0.2,83.6-0.5l0.5,0.5l3.2,3l0.4,0.4l2.9,3.1l0.5,0.5
	C293.5,186.1,293.3,186.2,293,186.5z"/>
<path d="M293.3,185.3c0,0-0.1,0.1-0.1,0.1c0,0-0.1,0.1-0.1,0.1l-2.9-3.1l-0.4-0.4l0.2,0.2L293.3,185.3z"/>
</svg>
