<?xml version="1.0" encoding="utf-8"?>
<!-- Generator: Adobe Illustrator 23.1.0, SVG Export Plug-In . SVG Version: 6.00 Build 0)  -->
<svg version="1.1" xmlns="http://www.w3.org/2000/svg" xmlns:xlink="http://www.w3.org/1999/xlink" x="0px" y="0px"
	 viewBox="0 0 568 337" style="enable-background:new 0 0 568 337;" xml:space="preserve">
<style type="text/css">
	.st0{fill:#F2F2F2;}
	.st1{fill:#F4F4F4;}
</style>
<g id="X">
	<polygon class="st0" points="509.31,259.07 563.99,337 497.74,336.03 476,305.64 454.26,336.03 393.94,337 394.04,336.85 
		384.1,337 440.71,256.3 384,177.02 389.93,177.02 451.73,177 474.04,208.8 496.35,177 506.2,177 564.09,177.02 568,177.02 	"/>
</g>
<g id="A">
	<polygon class="st1" points="213.5,337 213.5,177 369.5,177 369.5,337 304,336.5 304,308.68 280,308.68 280,336.5 	"/>
</g>
<g id="M_1_">
	<polygon class="st0" points="198,177 198,337 128.49,337 128.49,265.43 98.98,305.38 69.51,265.48 69.51,337 0,337 0,177 
		69.97,177 98.99,217.03 127.99,177 	"/>
</g>
<g id="E">
	<polygon class="st0" points="488.65,42.52 568,42.52 568,0 432.1,0 432.1,163 568,163 568,119.47 489.5,119.47 489.5,100.23 
		568,100.23 568,61.76 488.65,61.76 	"/>
</g>
<g id="D">
	<path class="st0" d="M283.41,0v163H385l33.46-41.05L418,43.06L385.01,0H283.41z M363.6,102.52h-23.63l-0.42-51.26h24.06V102.52z"/>
</g>
<g id="O">
	<path class="st0" d="M133.87,0v163h135.06V0H133.87z M214.06,102.52h-23.63l-0.42-51.26h24.06V102.52z"/>
</g>
<g id="C">
	<polygon class="st0" points="59.09,113 119.86,113 119.86,163 0,163 0,0 119.86,0 119.86,50 59.93,50 	"/>
</g>
</svg>
