<?xml version="1.0" encoding="utf-8"?>
<!-- Generator: Adobe Illustrator 26.0.0, SVG Export Plug-In . SVG Version: 6.00 Build 0)  -->
<svg version="1.1" id="Layer_3" xmlns="http://www.w3.org/2000/svg" xmlns:xlink="http://www.w3.org/1999/xlink" x="0px" y="0px"
	 viewBox="0 0 78.8 78.8" style="enable-background:new 0 0 78.8 78.8;" xml:space="preserve">
<style type="text/css">
	.st0{fill:#FCDF3E;}
</style>
<g>
	<path class="st0" d="M64.2,8.7c-0.3-0.3-0.7-0.5-1-0.8L7.9,63.2c0.3,0.3,0.5,0.7,0.8,1L64.2,8.7z"/>
	<path class="st0" d="M50.7,1.6c-0.5-0.1-0.9-0.3-1.4-0.4l-48,48c0.1,0.5,0.2,0.9,0.4,1.4L50.7,1.6z"/>
	<path class="st0" d="M60.2,5.9c-0.4-0.2-0.7-0.4-1.1-0.7L5.2,59c0.2,0.4,0.4,0.7,0.7,1.1L60.2,5.9z"/>
	<path class="st0" d="M55.7,3.5c-0.4-0.2-0.8-0.4-1.2-0.5L3,54.4c0.2,0.4,0.3,0.8,0.5,1.2L55.7,3.5z"/>
	<path class="st0" d="M45,0.4c-0.5-0.1-1-0.1-1.6-0.2L0.2,43.5c0,0.5,0.1,1,0.2,1.6L45,0.4z"/>
	<path class="st0" d="M67.3,11.5c-0.2-0.1-0.3-0.3-0.4-0.4L11.1,66.9c0.1,0.2,0.3,0.3,0.4,0.4c0.1,0.2,0.3,0.3,0.4,0.4L67.8,12
		C67.6,11.8,67.5,11.7,67.3,11.5z"/>
	<path class="st0" d="M38.6,0c-0.6,0-1.2,0-1.8,0.1L0.1,36.7C0,37.3,0,38,0,38.6L38.6,0z"/>
	<path class="st0" d="M0.9,30.8L30.8,1c-0.8,0.2-1.6,0.4-2.4,0.6L1.6,28.4C1.3,29.2,1.1,30,0.9,30.8z"/>
	<path class="st0" d="M78.8,42.1c0-0.6,0.1-1.2,0.1-1.8L40.3,78.8c0.6,0,1.2,0,1.8-0.1L78.8,42.1z"/>
	<path class="st0" d="M78.7,35.4c-0.1-0.5-0.1-1-0.2-1.6L33.8,78.5c0.5,0.1,1,0.1,1.6,0.2L78.7,35.4z"/>
	<path class="st0" d="M19.4,5.4c-2.8,1.7-5.4,3.7-7.9,6.1s-4.4,5.1-6.1,7.9L19.4,5.4z"/>
	<path class="st0" d="M77.3,50.5c0.2-0.8,0.4-1.6,0.6-2.4L48.1,77.9c0.8-0.2,1.6-0.4,2.4-0.6L77.3,50.5z"/>
	<path class="st0" d="M59.5,73.4c2.8-1.7,5.4-3.7,7.9-6.1c2.4-2.4,4.4-5,6.1-7.9L59.5,73.4z"/>
	<path class="st0" d="M73.7,19.8c-0.2-0.4-0.4-0.7-0.7-1.1L18.7,73c0.4,0.2,0.7,0.4,1.1,0.7L73.7,19.8z"/>
	<path class="st0" d="M70.9,15.7c-0.2-0.3-0.5-0.7-0.8-1L14.7,70.1c0.3,0.3,0.7,0.5,1,0.8L70.9,15.7z"/>
	<path class="st0" d="M77.6,29.6c-0.1-0.5-0.2-0.9-0.4-1.4l-49.1,49c0.5,0.1,0.9,0.3,1.4,0.4L77.6,29.6z"/>
	<path class="st0" d="M75.9,24.4c-0.2-0.4-0.3-0.8-0.5-1.2L23.2,75.4c0.4,0.2,0.8,0.4,1.2,0.5L75.9,24.4z"/>
</g>
</svg>
