<?xml version="1.0" encoding="utf-8"?>
<!-- Generator: Adobe Illustrator 23.1.0, SVG Export Plug-In . SVG Version: 6.00 Build 0)  -->
<svg version="1.1" xmlns="http://www.w3.org/2000/svg" xmlns:xlink="http://www.w3.org/1999/xlink" x="0px" y="0px"
	 viewBox="0 0 307.91 132.26" style="enable-background:new 0 0 307.91 132.26;" xml:space="preserve">
<style type="text/css">
	.st0{fill:#FFFFFF;}
	.st1{fill:#2E5BDC;}
	.st2{fill:url(#SVGID_1_);}
	.st3{fill:url(#SVGID_2_);}
	.st4{fill:url(#SVGID_3_);}
	.st5{fill:url(#SVGID_4_);}
	.st6{fill:url(#SVGID_5_);}
	.st7{fill:url(#SVGID_6_);}
	.st8{fill:url(#SVGID_7_);}
</style>
<g id="L">
	<g>
		<rect x="280.71" y="1.5" class="st0" width="25.7" height="93.26"/>
		<path class="st1" d="M304.91,3v90.26h-22.7V3H304.91 M307.91,0h-28.7v96.26h28.7V0L307.91,0z"/>
	</g>
</g>
<g id="U">
	<g>
		<path class="st0" d="M234.88,94.76c-15.79,0-28.63-12.84-28.63-28.63c0-15.79,12.84-28.63,28.63-28.63s28.63,12.84,28.63,28.63
			C263.51,81.92,250.67,94.76,234.88,94.76z"/>
		<path class="st1" d="M234.88,39c14.96,0,27.13,12.17,27.13,27.13s-12.17,27.13-27.13,27.13s-27.13-12.17-27.13-27.13
			S219.92,39,234.88,39 M234.88,36c-16.64,0-30.13,13.49-30.13,30.13c0,16.64,13.49,30.13,30.13,30.13
			c16.64,0,30.13-13.49,30.13-30.13C265.01,49.49,251.53,36,234.88,36L234.88,36z"/>
	</g>
	<g>
		<rect x="206.15" y="37.5" class="st0" width="57.48" height="25.7"/>
		<path class="st1" d="M262.12,39v22.7h-54.48V39H262.12 M265.12,36h-60.48v28.7h60.48V36L265.12,36z"/>
	</g>
</g>
<g id="P">
	<g>
		<rect x="132.69" y="37.5" class="st0" width="25.7" height="93.26"/>
		<path class="st1" d="M156.88,39v90.26h-22.7V39H156.88 M159.88,36h-28.7v96.26h28.7V36L159.88,36z"/>
	</g>
	<g>
		<path class="st0" d="M160.88,94.76c-15.79,0-28.63-12.84-28.63-28.63c0-15.79,12.84-28.63,28.63-28.63s28.63,12.84,28.63,28.63
			C189.51,81.92,176.67,94.76,160.88,94.76z"/>
		<path class="st1" d="M160.88,39c14.96,0,27.13,12.17,27.13,27.13s-12.17,27.13-27.13,27.13s-27.13-12.17-27.13-27.13
			S145.92,39,160.88,39 M160.88,36c-16.64,0-30.13,13.49-30.13,30.13c0,16.64,13.49,30.13,30.13,30.13
			c16.64,0,30.13-13.49,30.13-30.13C191.01,49.49,177.53,36,160.88,36L160.88,36z"/>
	</g>
</g>
<g id="I">
	<g>
		<rect x="87.3" y="37.39" class="st0" width="25.7" height="57.48"/>
		<path class="st1" d="M111.49,38.89v54.48H88.8V38.89H111.49 M114.49,35.89H85.8v60.48h28.7V35.89L114.49,35.89z"/>
	</g>
</g>
<g id="V">
	<g>
		<polygon class="st0" points="2.6,37.39 68.62,37.39 35.61,94.57 		"/>
		<path class="st1" d="M66.02,38.89L35.61,91.57L5.2,38.89H66.02 M71.21,35.89H0l35.61,61.67L71.21,35.89L71.21,35.89z"/>
	</g>
</g>
<g id="L_copy">
	<linearGradient id="SVGID_1_" gradientUnits="userSpaceOnUse" x1="293.5585" y1="0" x2="293.5585" y2="96.2609">
		<stop  offset="0" style="stop-color:#FB74CA"/>
		<stop  offset="1" style="stop-color:#8D3EF5"/>
	</linearGradient>
	<rect x="279.21" class="st2" width="28.7" height="96.26"/>
</g>
<g id="U_copy">
	<linearGradient id="SVGID_2_" gradientUnits="userSpaceOnUse" x1="234.8846" y1="96.2609" x2="234.8846" y2="36">
		<stop  offset="0" style="stop-color:#FEB241"/>
		<stop  offset="0.5271" style="stop-color:#FA7770"/>
	</linearGradient>
	<circle class="st3" cx="234.88" cy="66.13" r="30.13"/>
	<linearGradient id="SVGID_3_" gradientUnits="userSpaceOnUse" x1="204.9281" y1="50.3478" x2="265.4063" y2="50.3478">
		<stop  offset="0" style="stop-color:#FEB241"/>
		<stop  offset="1" style="stop-color:#FA7770"/>
	</linearGradient>
	<polygon class="st4" points="204.93,64.7 204.93,36 265.41,36 265.41,64.7 	"/>
</g>
<g id="P_copy">
	<linearGradient id="SVGID_4_" gradientUnits="userSpaceOnUse" x1="145.5367" y1="36" x2="145.5367" y2="132.2609">
		<stop  offset="0" style="stop-color:#FB74CA"/>
		<stop  offset="1" style="stop-color:#FC0F4C"/>
	</linearGradient>
	<rect x="131.19" y="36" class="st5" width="28.7" height="96.26"/>
	<linearGradient id="SVGID_5_" gradientUnits="userSpaceOnUse" x1="130.7541" y1="66.1304" x2="191.015" y2="66.1304">
		<stop  offset="0" style="stop-color:#E752AC"/>
		<stop  offset="1" style="stop-color:#FD0B46"/>
	</linearGradient>
	<circle class="st6" cx="160.88" cy="66.13" r="30.13"/>
</g>
<g id="I_copy">
	<linearGradient id="SVGID_6_" gradientUnits="userSpaceOnUse" x1="100.1454" y1="35.8913" x2="100.1454" y2="96.3696">
		<stop  offset="0" style="stop-color:#FCE86E"/>
		<stop  offset="1" style="stop-color:#43DD7B"/>
	</linearGradient>
	<rect x="85.8" y="35.89" class="st7" width="28.7" height="60.48"/>
</g>
<g id="V_copy">
	<linearGradient id="SVGID_7_" gradientUnits="userSpaceOnUse" x1="35.6074" y1="35.8913" x2="35.6074" y2="97.5652">
		<stop  offset="0" style="stop-color:#12C7EC"/>
		<stop  offset="1" style="stop-color:#A85EF9"/>
	</linearGradient>
	<polygon class="st8" points="35.61,97.57 71.21,35.89 0,35.89 	"/>
</g>
</svg>
