<?xml version="1.0" encoding="utf-8"?>
<!-- Generator: Adobe Illustrator 26.0.0, SVG Export Plug-In . SVG Version: 6.00 Build 0)  -->
<svg version="1.1" id="Layer_1" xmlns="http://www.w3.org/2000/svg" xmlns:xlink="http://www.w3.org/1999/xlink" x="0px" y="0px"
	 viewBox="0 0 172.5 174" style="enable-background:new 0 0 172.5 174;" xml:space="preserve">
<g id="bottom-left">
	<path d="M57.4,173.6C25.7,173.6,0,147.9,0,116.2h57.4V173.6z"/>
</g>
<g id="top-left">
	<path d="M57.4,0.4C25.7,0.4,0,26.1,0,57.8h57.4V0.4z"/>
</g>
<g id="all-right">
	<path d="M115.4,86.8v0.4c0.1,16.3,8.7,28,24.8,28.8c10.7,0.5,21.5,0.1,32.3,0.1v58H115c0-9.3,0.4-18.2,0.1-27.2
		c-0.5-17.3-8.8-29.9-30-30.6c-10.1-0.3-18.2,0-27.7,0c0-9.7-0.1-19.4-0.3-29v-0.4c0.1-9.6,0.3-19.3,0.3-29c9.5,0,17.6,0.3,27.7,0
		c21.2-0.6,29.5-13.3,30-30.6C115.3,18.2,115,9.3,115,0h57.5v57.9c-10.8,0-21.6-0.4-32.3,0.1C124.1,58.8,115.5,70.5,115.4,86.8z"/>
</g>
</svg>
