<?xml version="1.0" encoding="utf-8"?>
<!-- Generator: Adobe Illustrator 26.0.0, SVG Export Plug-In . SVG Version: 6.00 Build 0)  -->
<svg version="1.1" id="Layer_9" xmlns="http://www.w3.org/2000/svg" xmlns:xlink="http://www.w3.org/1999/xlink" x="0px" y="0px"
	 viewBox="0 0 24.76 192.74" style="enable-background:new 0 0 24.76 192.74;" xml:space="preserve">
<style type="text/css">
	.st0{fill:#FCDF3E;}
</style>
<g>
	<polygon class="st0" points="0,1.41 24.76,26.17 24.76,24.76 0,0 	"/>
	<polygon class="st0" points="0,14.23 24.76,38.99 24.76,37.57 0,12.81 	"/>
	<polygon class="st0" points="0,27.04 24.76,51.8 24.76,50.39 0,25.63 	"/>
	<polygon class="st0" points="0,39.85 24.76,64.61 24.76,63.2 0,38.44 	"/>
	<polygon class="st0" points="0,52.67 24.76,77.43 24.76,76.01 0,51.25 	"/>
	<polygon class="st0" points="0,65.48 24.76,90.24 24.76,88.83 0,64.07 	"/>
	<polygon class="st0" points="0,78.29 24.76,103.05 24.76,101.64 0,76.88 	"/>
	<polygon class="st0" points="0,91.11 24.76,115.87 24.76,114.45 0,89.69 	"/>
	<polygon class="st0" points="0,103.92 24.76,128.68 24.76,127.26 0,102.5 	"/>
	<polygon class="st0" points="0,116.73 24.76,141.49 24.76,140.08 0,115.32 	"/>
	<polygon class="st0" points="0,129.54 24.76,154.3 24.76,152.89 0,128.13 	"/>
	<polygon class="st0" points="0,142.36 24.76,167.12 24.76,165.7 0,140.94 	"/>
	<polygon class="st0" points="0,155.17 24.76,179.93 24.76,178.52 0,153.76 	"/>
	<polygon class="st0" points="0,167.98 24.76,192.74 24.76,191.33 0,166.57 	"/>
</g>
</svg>
