<?xml version="1.0" encoding="utf-8"?>
<!-- Generator: Adobe Illustrator 23.1.0, SVG Export Plug-In . SVG Version: 6.00 Build 0)  -->
<svg version="1.1" id="Layer_2" xmlns="http://www.w3.org/2000/svg" xmlns:xlink="http://www.w3.org/1999/xlink" x="0px" y="0px"
	 viewBox="0 0 60.26 96.26" style="enable-background:new 0 0 60.26 96.26;" xml:space="preserve">
<style type="text/css">
	.st0{fill:#FFFFFF;}
	.st1{fill:#2E5BDC;}
</style>
<g>
	<rect x="1.93" y="1.5" class="st0" width="25.7" height="93.26"/>
	<path class="st1" d="M26.13,3v90.26H3.43V3H26.13 M29.13,0H0.43v96.26h28.7V0L29.13,0z"/>
</g>
<g>
	<path class="st0" d="M30.13,58.76C14.34,58.76,1.5,45.92,1.5,30.13C1.5,14.34,14.34,1.5,30.13,1.5c15.79,0,28.63,12.84,28.63,28.63
		C58.76,45.92,45.92,58.76,30.13,58.76z"/>
	<path class="st1" d="M30.13,3c14.96,0,27.13,12.17,27.13,27.13S45.09,57.26,30.13,57.26S3,45.09,3,30.13S15.17,3,30.13,3 M30.13,0
		C13.49,0,0,13.49,0,30.13c0,16.64,13.49,30.13,30.13,30.13c16.64,0,30.13-13.49,30.13-30.13C60.26,13.49,46.77,0,30.13,0L30.13,0z"
		/>
</g>
</svg>
