<?xml version="1.0" encoding="utf-8"?>
<!-- Generator: Adobe Illustrator 23.1.0, SVG Export Plug-In . SVG Version: 6.00 Build 0)  -->
<svg version="1.1" id="Layer_2" xmlns="http://www.w3.org/2000/svg" xmlns:xlink="http://www.w3.org/1999/xlink" x="0px" y="0px"
	 viewBox="0 0 60.48 60.26" style="enable-background:new 0 0 60.48 60.26;" xml:space="preserve">
<style type="text/css">
	.st0{fill:#FFFFFF;}
	.st1{fill:#2E5BDC;}
</style>
<g>
	<path class="st0" d="M30.24,58.76c-15.79,0-28.63-12.84-28.63-28.63C1.61,14.34,14.45,1.5,30.24,1.5
		c15.79,0,28.63,12.84,28.63,28.63C58.87,45.92,46.03,58.76,30.24,58.76z"/>
	<path class="st1" d="M30.24,3C45.2,3,57.37,15.17,57.37,30.13S45.2,57.26,30.24,57.26S3.11,45.09,3.11,30.13S15.28,3,30.24,3
		 M30.24,0C13.6,0,0.11,13.49,0.11,30.13c0,16.64,13.49,30.13,30.13,30.13s30.13-13.49,30.13-30.13C60.37,13.49,46.88,0,30.24,0
		L30.24,0z"/>
</g>
<g>
	<rect x="1.5" y="1.5" class="st0" width="57.48" height="25.7"/>
	<path class="st1" d="M57.48,3v22.7H3V3H57.48 M60.48,0H0v28.7h60.48V0L60.48,0z"/>
</g>
</svg>
